<svg width="258" height="126" viewBox="0 0 258 126" fill="none" xmlns="http://www.w3.org/2000/svg">
<path d="M68.8615 74.1479C71.0706 74.1479 72.8615 72.3571 72.8615 70.1479C72.8615 67.9388 71.0706 66.1479 68.8615 66.1479C66.6523 66.1479 64.8615 67.9388 64.8615 70.1479C64.8615 72.3571 66.6523 74.1479 68.8615 74.1479Z" fill="#FF0000" fill-opacity="0.7" stroke="white" stroke-width="0.5"/>
<path d="M69.0323 73.0721C70.6892 73.0721 72.0323 71.729 72.0323 70.0721C72.0323 68.4153 70.6892 67.0721 69.0323 67.0721C67.3755 67.0721 66.0323 68.4153 66.0323 70.0721C66.0323 71.729 67.3755 73.0721 69.0323 73.0721Z" fill="#FF0000" fill-opacity="0.7" stroke="white" stroke-width="0.5"/>
<path d="M68.6487 71.9743C69.7533 71.9743 70.6487 71.0789 70.6487 69.9743C70.6487 68.8697 69.7533 67.9743 68.6487 67.9743C67.5441 67.9743 66.6487 68.8697 66.6487 69.9743C66.6487 71.0789 67.5441 71.9743 68.6487 71.9743Z" fill="#FF0000" fill-opacity="0.7" stroke="white" stroke-width="0.5"/>
<path d="M69.3108 72.3658C70.4153 72.3658 71.3108 71.4703 71.3108 70.3658C71.3108 69.2612 70.4153 68.3658 69.3108 68.3658C68.2062 68.3658 67.3108 69.2612 67.3108 70.3658C67.3108 71.4703 68.2062 72.3658 69.3108 72.3658Z" fill="#FF0000" fill-opacity="0.7" stroke="white" stroke-width="0.5"/>
<path d="M68.839 72.1695C69.9435 72.1695 70.839 71.2741 70.839 70.1695C70.839 69.0649 69.9435 68.1695 68.839 68.1695C67.7344 68.1695 66.839 69.0649 66.839 70.1695C66.839 71.2741 67.7344 72.1695 68.839 72.1695Z" fill="#FF0000" fill-opacity="0.7" stroke="white" stroke-width="0.5"/>
<path d="M68.8158 72.1672C69.9203 72.1672 70.8158 71.2718 70.8158 70.1672C70.8158 69.0626 69.9203 68.1672 68.8158 68.1672C67.7112 68.1672 66.8158 69.0626 66.8158 70.1672C66.8158 71.2718 67.7112 72.1672 68.8158 72.1672Z" fill="#FF0000" fill-opacity="0.7" stroke="white" stroke-width="0.5"/>
<path d="M68.5506 72.1417C69.6551 72.1417 70.5506 71.2462 70.5506 70.1417C70.5506 69.0371 69.6551 68.1417 68.5506 68.1417C67.446 68.1417 66.5506 69.0371 66.5506 70.1417C66.5506 71.2462 67.446 72.1417 68.5506 72.1417Z" fill="#FF0000" fill-opacity="0.7" stroke="white" stroke-width="0.5"/>
<path d="M69.5792 72.1835C70.6838 72.1835 71.5792 71.2881 71.5792 70.1835C71.5792 69.079 70.6838 68.1835 69.5792 68.1835C68.4747 68.1835 67.5792 69.079 67.5792 70.1835C67.5792 71.2881 68.4747 72.1835 69.5792 72.1835Z" fill="#FF0000" fill-opacity="0.7" stroke="white" stroke-width="0.5"/>
<path d="M69.4698 72.2848C70.5744 72.2848 71.4698 71.3894 71.4698 70.2848C71.4698 69.1802 70.5744 68.2848 69.4698 68.2848C68.3653 68.2848 67.4698 69.1802 67.4698 70.2848C67.4698 71.3894 68.3653 72.2848 69.4698 72.2848Z" fill="#FF0000" fill-opacity="0.7" stroke="white" stroke-width="0.5"/>
<path d="M87.325 101.961C88.4296 101.961 89.325 101.065 89.325 99.9607C89.325 98.8561 88.4296 97.9607 87.325 97.9607C86.2204 97.9607 85.325 98.8561 85.325 99.9607C85.325 101.065 86.2204 101.961 87.325 101.961Z" fill="#FF0000" fill-opacity="0.7" stroke="white" stroke-width="0.5"/>
<path d="M87.2477 101.874C88.3522 101.874 89.2477 100.978 89.2477 99.8737C89.2477 98.7691 88.3522 97.8737 87.2477 97.8737C86.1431 97.8737 85.2477 98.7691 85.2477 99.8737C85.2477 100.978 86.1431 101.874 87.2477 101.874Z" fill="#FF0000" fill-opacity="0.7" stroke="white" stroke-width="0.5"/>
<path d="M68.4785 72.0186C69.5831 72.0186 70.4785 71.1232 70.4785 70.0186C70.4785 68.914 69.5831 68.0186 68.4785 68.0186C67.3739 68.0186 66.4785 68.914 66.4785 70.0186C66.4785 71.1232 67.3739 72.0186 68.4785 72.0186Z" fill="#FF0000" fill-opacity="0.7" stroke="white" stroke-width="0.5"/>
<path d="M63.7195 56.733C64.8241 56.733 65.7195 55.8376 65.7195 54.733C65.7195 53.6285 64.8241 52.733 63.7195 52.733C62.6149 52.733 61.7195 53.6285 61.7195 54.733C61.7195 55.8376 62.6149 56.733 63.7195 56.733Z" fill="#FF0000" fill-opacity="0.7" stroke="white" stroke-width="0.5"/>
<path d="M68.8555 72.1287C69.9601 72.1287 70.8555 71.2332 70.8555 70.1287C70.8555 69.0241 69.9601 68.1287 68.8555 68.1287C67.7509 68.1287 66.8555 69.0241 66.8555 70.1287C66.8555 71.2332 67.7509 72.1287 68.8555 72.1287Z" fill="#FF0000" fill-opacity="0.7" stroke="white" stroke-width="0.5"/>
<path d="M68.5321 71.9866C69.6367 71.9866 70.5321 71.0912 70.5321 69.9866C70.5321 68.882 69.6367 67.9866 68.5321 67.9866C67.4276 67.9866 66.5321 68.882 66.5321 69.9866C66.5321 71.0912 67.4276 71.9866 68.5321 71.9866Z" fill="#FF0000" fill-opacity="0.7" stroke="white" stroke-width="0.5"/>
<path d="M68.8923 72.1321C69.9969 72.1321 70.8923 71.2366 70.8923 70.1321C70.8923 69.0275 69.9969 68.1321 68.8923 68.1321C67.7877 68.1321 66.8923 69.0275 66.8923 70.1321C66.8923 71.2366 67.7877 72.1321 68.8923 72.1321Z" fill="#FF0000" fill-opacity="0.7" stroke="white" stroke-width="0.5"/>
<path d="M69.0742 72.0609C70.1788 72.0609 71.0742 71.1655 71.0742 70.0609C71.0742 68.9564 70.1788 68.0609 69.0742 68.0609C67.9697 68.0609 67.0742 68.9564 67.0742 70.0609C67.0742 71.1655 67.9697 72.0609 69.0742 72.0609Z" fill="#FF0000" fill-opacity="0.7" stroke="white" stroke-width="0.5"/>
<path d="M69.6723 72.3737C70.7769 72.3737 71.6723 71.4783 71.6723 70.3737C71.6723 69.2691 70.7769 68.3737 69.6723 68.3737C68.5678 68.3737 67.6723 69.2691 67.6723 70.3737C67.6723 71.4783 68.5678 72.3737 69.6723 72.3737Z" fill="#FF0000" fill-opacity="0.7" stroke="white" stroke-width="0.5"/>
<path d="M68.5763 71.9789C69.6809 71.9789 70.5763 71.0835 70.5763 69.9789C70.5763 68.8743 69.6809 67.9789 68.5763 67.9789C67.4717 67.9789 66.5763 68.8743 66.5763 69.9789C66.5763 71.0835 67.4717 71.9789 68.5763 71.9789Z" fill="#FF0000" fill-opacity="0.7" stroke="white" stroke-width="0.5"/>
<path d="M74.1769 57.7695C75.2815 57.7695 76.1769 56.8741 76.1769 55.7695C76.1769 54.6649 75.2815 53.7695 74.1769 53.7695C73.0724 53.7695 72.1769 54.6649 72.1769 55.7695C72.1769 56.8741 73.0724 57.7695 74.1769 57.7695Z" fill="#FF0000" fill-opacity="0.7" stroke="white" stroke-width="0.5"/>
<path d="M81.5111 63.2296C82.6157 63.2296 83.5111 62.3342 83.5111 61.2296C83.5111 60.125 82.6157 59.2296 81.5111 59.2296C80.4065 59.2296 79.5111 60.125 79.5111 61.2296C79.5111 62.3342 80.4065 63.2296 81.5111 63.2296Z" fill="#FF0000" fill-opacity="0.7" stroke="white" stroke-width="0.5"/>
<path d="M75.8509 55.8359C76.9555 55.8359 77.8509 54.9405 77.8509 53.8359C77.8509 52.7313 76.9555 51.8359 75.8509 51.8359C74.7464 51.8359 73.8509 52.7313 73.8509 53.8359C73.8509 54.9405 74.7464 55.8359 75.8509 55.8359Z" fill="#FF0000" fill-opacity="0.7" stroke="white" stroke-width="0.5"/>
<path d="M68.7594 72.1336C69.8639 72.1336 70.7594 71.2381 70.7594 70.1336C70.7594 69.029 69.8639 68.1336 68.7594 68.1336C67.6548 68.1336 66.7594 69.029 66.7594 70.1336C66.7594 71.2381 67.6548 72.1336 68.7594 72.1336Z" fill="#FF0000" fill-opacity="0.7" stroke="white" stroke-width="0.5"/>
<path d="M69.0224 72.143C70.127 72.143 71.0224 71.2476 71.0224 70.143C71.0224 69.0384 70.127 68.143 69.0224 68.143C67.9179 68.143 67.0224 69.0384 67.0224 70.143C67.0224 71.2476 67.9179 72.143 69.0224 72.143Z" fill="#FF0000" fill-opacity="0.7" stroke="white" stroke-width="0.5"/>
<path d="M49.2608 56.9617C50.3653 56.9617 51.2608 56.0663 51.2608 54.9617C51.2608 53.8572 50.3653 52.9617 49.2608 52.9617C48.1562 52.9617 47.2608 53.8572 47.2608 54.9617C47.2608 56.0663 48.1562 56.9617 49.2608 56.9617Z" fill="#FF0000" fill-opacity="0.7" stroke="white" stroke-width="0.5"/>
<path d="M72.2817 53.4799C73.3862 53.4799 74.2817 52.5844 74.2817 51.4799C74.2817 50.3753 73.3862 49.4799 72.2817 49.4799C71.1771 49.4799 70.2817 50.3753 70.2817 51.4799C70.2817 52.5844 71.1771 53.4799 72.2817 53.4799Z" fill="#FF0000" fill-opacity="0.7" stroke="white" stroke-width="0.5"/>
<path d="M68.7141 71.768C69.8187 71.768 70.7141 70.8725 70.7141 69.768C70.7141 68.6634 69.8187 67.768 68.7141 67.768C67.6096 67.768 66.7141 68.6634 66.7141 69.768C66.7141 70.8725 67.6096 71.768 68.7141 71.768Z" fill="#FF0000" fill-opacity="0.7" stroke="white" stroke-width="0.5"/>
<path d="M68.9174 72.1521C70.0219 72.1521 70.9174 71.2567 70.9174 70.1521C70.9174 69.0476 70.0219 68.1521 68.9174 68.1521C67.8128 68.1521 66.9174 69.0476 66.9174 70.1521C66.9174 71.2567 67.8128 72.1521 68.9174 72.1521Z" fill="#FF0000" fill-opacity="0.7" stroke="white" stroke-width="0.5"/>
<path d="M69.1019 72.1937C70.2065 72.1937 71.1019 71.2983 71.1019 70.1937C71.1019 69.0891 70.2065 68.1937 69.1019 68.1937C67.9974 68.1937 67.1019 69.0891 67.1019 70.1937C67.1019 71.2983 67.9974 72.1937 69.1019 72.1937Z" fill="#FF0000" fill-opacity="0.7" stroke="white" stroke-width="0.5"/>
<path d="M123.482 48.6613C124.586 48.6613 125.482 47.7658 125.482 46.6613C125.482 45.5567 124.586 44.6613 123.482 44.6613C122.377 44.6613 121.482 45.5567 121.482 46.6613C121.482 47.7658 122.377 48.6613 123.482 48.6613Z" fill="#FF0000" fill-opacity="0.7" stroke="white" stroke-width="0.5"/>
<path d="M68.0759 71.5856C69.1804 71.5856 70.0759 70.6901 70.0759 69.5856C70.0759 68.481 69.1804 67.5856 68.0759 67.5856C66.9713 67.5856 66.0759 68.481 66.0759 69.5856C66.0759 70.6901 66.9713 71.5856 68.0759 71.5856Z" fill="#FF0000" fill-opacity="0.7" stroke="white" stroke-width="0.5"/>
<path d="M77.9279 54.6619C79.0325 54.6619 79.9279 53.7664 79.9279 52.6619C79.9279 51.5573 79.0325 50.6619 77.9279 50.6619C76.8234 50.6619 75.9279 51.5573 75.9279 52.6619C75.9279 53.7664 76.8234 54.6619 77.9279 54.6619Z" fill="#FF0000" fill-opacity="0.7" stroke="white" stroke-width="0.5"/>
<path d="M68.685 72.1266C69.7896 72.1266 70.685 71.2312 70.685 70.1266C70.685 69.0221 69.7896 68.1266 68.685 68.1266C67.5804 68.1266 66.685 69.0221 66.685 70.1266C66.685 71.2312 67.5804 72.1266 68.685 72.1266Z" fill="#FF0000" fill-opacity="0.7" stroke="white" stroke-width="0.5"/>
<path d="M69.5196 72.1532C70.6241 72.1532 71.5196 71.2577 71.5196 70.1532C71.5196 69.0486 70.6241 68.1532 69.5196 68.1532C68.415 68.1532 67.5196 69.0486 67.5196 70.1532C67.5196 71.2577 68.415 72.1532 69.5196 72.1532Z" fill="#FF0000" fill-opacity="0.7" stroke="white" stroke-width="0.5"/>
<path d="M68.2369 71.0565C69.3414 71.0565 70.2369 70.1611 70.2369 69.0565C70.2369 67.952 69.3414 67.0565 68.2369 67.0565C67.1323 67.0565 66.2369 67.952 66.2369 69.0565C66.2369 70.1611 67.1323 71.0565 68.2369 71.0565Z" fill="#FF0000" fill-opacity="0.7" stroke="white" stroke-width="0.5"/>
<path d="M69.5504 54.0388C70.6549 54.0388 71.5504 53.1433 71.5504 52.0388C71.5504 50.9342 70.6549 50.0388 69.5504 50.0388C68.4458 50.0388 67.5504 50.9342 67.5504 52.0388C67.5504 53.1433 68.4458 54.0388 69.5504 54.0388Z" fill="#FF0000" fill-opacity="0.7" stroke="white" stroke-width="0.5"/>
<path d="M73.3181 63.2153C74.4227 63.2153 75.3181 62.3198 75.3181 61.2153C75.3181 60.1107 74.4227 59.2153 73.3181 59.2153C72.2136 59.2153 71.3181 60.1107 71.3181 61.2153C71.3181 62.3198 72.2136 63.2153 73.3181 63.2153Z" fill="#FF0000" fill-opacity="0.7" stroke="white" stroke-width="0.5"/>
<path d="M51.5548 59.2495C52.6594 59.2495 53.5548 58.354 53.5548 57.2495C53.5548 56.1449 52.6594 55.2495 51.5548 55.2495C50.4502 55.2495 49.5548 56.1449 49.5548 57.2495C49.5548 58.354 50.4502 59.2495 51.5548 59.2495Z" fill="#FF0000" fill-opacity="0.7" stroke="white" stroke-width="0.5"/>
<path d="M127.449 46.9958C128.553 46.9958 129.449 46.1004 129.449 44.9958C129.449 43.8913 128.553 42.9958 127.449 42.9958C126.344 42.9958 125.449 43.8913 125.449 44.9958C125.449 46.1004 126.344 46.9958 127.449 46.9958Z" fill="#FF0000" fill-opacity="0.7" stroke="white" stroke-width="0.5"/>
<path d="M66.5164 58.4232C67.621 58.4232 68.5164 57.5278 68.5164 56.4232C68.5164 55.3186 67.621 54.4232 66.5164 54.4232C65.4118 54.4232 64.5164 55.3186 64.5164 56.4232C64.5164 57.5278 65.4118 58.4232 66.5164 58.4232Z" fill="#FF0000" fill-opacity="0.7" stroke="white" stroke-width="0.5"/>
<path d="M52.1841 60.1426C53.2887 60.1426 54.1841 59.2471 54.1841 58.1426C54.1841 57.038 53.2887 56.1426 52.1841 56.1426C51.0796 56.1426 50.1841 57.038 50.1841 58.1426C50.1841 59.2471 51.0796 60.1426 52.1841 60.1426Z" fill="#FF0000" fill-opacity="0.7" stroke="white" stroke-width="0.5"/>
<path d="M68.8746 72.2081C69.9791 72.2081 70.8746 71.3127 70.8746 70.2081C70.8746 69.1035 69.9791 68.2081 68.8746 68.2081C67.77 68.2081 66.8746 69.1035 66.8746 70.2081C66.8746 71.3127 67.77 72.2081 68.8746 72.2081Z" fill="#FF0000" fill-opacity="0.7" stroke="white" stroke-width="0.5"/>
<path d="M68.8757 72.088C69.9803 72.088 70.8757 71.1926 70.8757 70.088C70.8757 68.9834 69.9803 68.088 68.8757 68.088C67.7711 68.088 66.8757 68.9834 66.8757 70.088C66.8757 71.1926 67.7711 72.088 68.8757 72.088Z" fill="#FF0000" fill-opacity="0.7" stroke="white" stroke-width="0.5"/>
<path d="M122.006 46.6035C123.111 46.6035 124.006 45.708 124.006 44.6035C124.006 43.4989 123.111 42.6035 122.006 42.6035C120.902 42.6035 120.006 43.4989 120.006 44.6035C120.006 45.708 120.902 46.6035 122.006 46.6035Z" fill="#FF0000" fill-opacity="0.7" stroke="white" stroke-width="0.5"/>
<path d="M68.3638 72.1042C69.4683 72.1042 70.3638 71.2088 70.3638 70.1042C70.3638 68.9996 69.4683 68.1042 68.3638 68.1042C67.2592 68.1042 66.3638 68.9996 66.3638 70.1042C66.3638 71.2088 67.2592 72.1042 68.3638 72.1042Z" fill="#FF0000" fill-opacity="0.7" stroke="white" stroke-width="0.5"/>
<path d="M72.0458 74.4888C73.1503 74.4888 74.0458 73.5934 74.0458 72.4888C74.0458 71.3842 73.1503 70.4888 72.0458 70.4888C70.9412 70.4888 70.0458 71.3842 70.0458 72.4888C70.0458 73.5934 70.9412 74.4888 72.0458 74.4888Z" fill="#FF0000" fill-opacity="0.7" stroke="white" stroke-width="0.5"/>
<path d="M65.2512 62.1776C66.3557 62.1776 67.2512 61.2821 67.2512 60.1776C67.2512 59.073 66.3557 58.1776 65.2512 58.1776C64.1466 58.1776 63.2512 59.073 63.2512 60.1776C63.2512 61.2821 64.1466 62.1776 65.2512 62.1776Z" fill="#FF0000" fill-opacity="0.7" stroke="white" stroke-width="0.5"/>
<path d="M126.852 50.0762C127.957 50.0762 128.852 49.1808 128.852 48.0762C128.852 46.9716 127.957 46.0762 126.852 46.0762C125.748 46.0762 124.852 46.9716 124.852 48.0762C124.852 49.1808 125.748 50.0762 126.852 50.0762Z" fill="#FF0000" fill-opacity="0.7" stroke="white" stroke-width="0.5"/>
<path d="M190.191 66.8838C191.295 66.8838 192.191 65.9883 192.191 64.8838C192.191 63.7792 191.295 62.8838 190.191 62.8838C189.086 62.8838 188.191 63.7792 188.191 64.8838C188.191 65.9883 189.086 66.8838 190.191 66.8838Z" fill="#FF0000" fill-opacity="0.7" stroke="white" stroke-width="0.5"/>
<path d="M49.3272 56.9578C50.4318 56.9578 51.3272 56.0623 51.3272 54.9578C51.3272 53.8532 50.4318 52.9578 49.3272 52.9578C48.2227 52.9578 47.3272 53.8532 47.3272 54.9578C47.3272 56.0623 48.2227 56.9578 49.3272 56.9578Z" fill="#FF0000" fill-opacity="0.7" stroke="white" stroke-width="0.5"/>
<path d="M55.3281 54.6301C56.4326 54.6301 57.3281 53.7346 57.3281 52.6301C57.3281 51.5255 56.4326 50.6301 55.3281 50.6301C54.2235 50.6301 53.3281 51.5255 53.3281 52.6301C53.3281 53.7346 54.2235 54.6301 55.3281 54.6301Z" fill="#FF0000" fill-opacity="0.7" stroke="white" stroke-width="0.5"/>
<path d="M74.2137 64.633C75.3183 64.633 76.2137 63.7375 76.2137 62.633C76.2137 61.5284 75.3183 60.633 74.2137 60.633C73.1091 60.633 72.2137 61.5284 72.2137 62.633C72.2137 63.7375 73.1091 64.633 74.2137 64.633Z" fill="#FF0000" fill-opacity="0.7" stroke="white" stroke-width="0.5"/>
<path d="M49.1008 56.8627C50.2054 56.8627 51.1008 55.9673 51.1008 54.8627C51.1008 53.7581 50.2054 52.8627 49.1008 52.8627C47.9963 52.8627 47.1008 53.7581 47.1008 54.8627C47.1008 55.9673 47.9963 56.8627 49.1008 56.8627Z" fill="#FF0000" fill-opacity="0.7" stroke="white" stroke-width="0.5"/>
<path d="M56.3229 65.635C57.4275 65.635 58.3229 64.7396 58.3229 63.635C58.3229 62.5304 57.4275 61.635 56.3229 61.635C55.2183 61.635 54.3229 62.5304 54.3229 63.635C54.3229 64.7396 55.2183 65.635 56.3229 65.635Z" fill="#FF0000" fill-opacity="0.7" stroke="white" stroke-width="0.5"/>
<path d="M80.3776 69.2355C81.4821 69.2355 82.3776 68.3401 82.3776 67.2355C82.3776 66.131 81.4821 65.2355 80.3776 65.2355C79.273 65.2355 78.3776 66.131 78.3776 67.2355C78.3776 68.3401 79.273 69.2355 80.3776 69.2355Z" fill="#FF0000" fill-opacity="0.7" stroke="white" stroke-width="0.5"/>
<path d="M69.2047 72.0555C70.3093 72.0555 71.2047 71.1601 71.2047 70.0555C71.2047 68.951 70.3093 68.0555 69.2047 68.0555C68.1002 68.0555 67.2047 68.951 67.2047 70.0555C67.2047 71.1601 68.1002 72.0555 69.2047 72.0555Z" fill="#FF0000" fill-opacity="0.7" stroke="white" stroke-width="0.5"/>
<path d="M67.3818 71.6462C68.4863 71.6462 69.3818 70.7508 69.3818 69.6462C69.3818 68.5416 68.4863 67.6462 67.3818 67.6462C66.2772 67.6462 65.3818 68.5416 65.3818 69.6462C65.3818 70.7508 66.2772 71.6462 67.3818 71.6462Z" fill="#FF0000" fill-opacity="0.7" stroke="white" stroke-width="0.5"/>
<path d="M70.0465 71.9099C71.1511 71.9099 72.0465 71.0145 72.0465 69.9099C72.0465 68.8054 71.1511 67.9099 70.0465 67.9099C68.942 67.9099 68.0465 68.8054 68.0465 69.9099C68.0465 71.0145 68.942 71.9099 70.0465 71.9099Z" fill="#FF0000" fill-opacity="0.7" stroke="white" stroke-width="0.5"/>
<path d="M63.0493 68.4582C64.1539 68.4582 65.0493 67.5628 65.0493 66.4582C65.0493 65.3536 64.1539 64.4582 63.0493 64.4582C61.9447 64.4582 61.0493 65.3536 61.0493 66.4582C61.0493 67.5628 61.9447 68.4582 63.0493 68.4582Z" fill="#FF0000" fill-opacity="0.7" stroke="white" stroke-width="0.5"/>
<path d="M69.0224 71.9505C70.127 71.9505 71.0224 71.0551 71.0224 69.9505C71.0224 68.846 70.127 67.9505 69.0224 67.9505C67.9179 67.9505 67.0224 68.846 67.0224 69.9505C67.0224 71.0551 67.9179 71.9505 69.0224 71.9505Z" fill="#FF0000" fill-opacity="0.7" stroke="white" stroke-width="0.5"/>
<path d="M63.0101 68.6357C64.1146 68.6357 65.0101 67.7403 65.0101 66.6357C65.0101 65.5311 64.1146 64.6357 63.0101 64.6357C61.9055 64.6357 61.0101 65.5311 61.0101 66.6357C61.0101 67.7403 61.9055 68.6357 63.0101 68.6357Z" fill="#FF0000" fill-opacity="0.7" stroke="white" stroke-width="0.5"/>
<path d="M119.871 54.8724C120.975 54.8724 121.871 53.977 121.871 52.8724C121.871 51.7678 120.975 50.8724 119.871 50.8724C118.766 50.8724 117.871 51.7678 117.871 52.8724C117.871 53.977 118.766 54.8724 119.871 54.8724Z" fill="#FF0000" fill-opacity="0.7" stroke="white" stroke-width="0.5"/>
<path d="M68.5876 72.1388C69.6921 72.1388 70.5876 71.2434 70.5876 70.1388C70.5876 69.0343 69.6921 68.1388 68.5876 68.1388C67.483 68.1388 66.5876 69.0343 66.5876 70.1388C66.5876 71.2434 67.483 72.1388 68.5876 72.1388Z" fill="#FF0000" fill-opacity="0.7" stroke="white" stroke-width="0.5"/>
<path d="M75.0977 82.0377C76.2023 82.0377 77.0977 81.1423 77.0977 80.0377C77.0977 78.9332 76.2023 78.0377 75.0977 78.0377C73.9931 78.0377 73.0977 78.9332 73.0977 80.0377C73.0977 81.1423 73.9931 82.0377 75.0977 82.0377Z" fill="#FF0000" fill-opacity="0.7" stroke="white" stroke-width="0.5"/>
<path d="M125.003 45.8971C126.107 45.8971 127.003 45.0017 127.003 43.8971C127.003 42.7926 126.107 41.8971 125.003 41.8971C123.898 41.8971 123.003 42.7926 123.003 43.8971C123.003 45.0017 123.898 45.8971 125.003 45.8971Z" fill="#FF0000" fill-opacity="0.7" stroke="white" stroke-width="0.5"/>
<path d="M130.078 45.787C131.183 45.787 132.078 44.8916 132.078 43.787C132.078 42.6825 131.183 41.787 130.078 41.787C128.973 41.787 128.078 42.6825 128.078 43.787C128.078 44.8916 128.973 45.787 130.078 45.787Z" fill="#FF0000" fill-opacity="0.7" stroke="white" stroke-width="0.5"/>
<path d="M68.8616 72.1258C69.9661 72.1258 70.8616 71.2303 70.8616 70.1258C70.8616 69.0212 69.9661 68.1258 68.8616 68.1258C67.757 68.1258 66.8616 69.0212 66.8616 70.1258C66.8616 71.2303 67.757 72.1258 68.8616 72.1258Z" fill="#FF0000" fill-opacity="0.7" stroke="white" stroke-width="0.5"/>
<path d="M74.3718 81.5303C75.4764 81.5303 76.3718 80.6349 76.3718 79.5303C76.3718 78.4258 75.4764 77.5303 74.3718 77.5303C73.2673 77.5303 72.3718 78.4258 72.3718 79.5303C72.3718 80.6349 73.2673 81.5303 74.3718 81.5303Z" fill="#FF0000" fill-opacity="0.7" stroke="white" stroke-width="0.5"/>
<path d="M77.6468 55.524C78.7514 55.524 79.6468 54.6286 79.6468 53.524C79.6468 52.4194 78.7514 51.524 77.6468 51.524C76.5422 51.524 75.6468 52.4194 75.6468 53.524C75.6468 54.6286 76.5422 55.524 77.6468 55.524Z" fill="#FF0000" fill-opacity="0.7" stroke="white" stroke-width="0.5"/>
<path d="M68.9124 72.1929C70.0169 72.1929 70.9124 71.2975 70.9124 70.1929C70.9124 69.0883 70.0169 68.1929 68.9124 68.1929C67.8078 68.1929 66.9124 69.0883 66.9124 70.1929C66.9124 71.2975 67.8078 72.1929 68.9124 72.1929Z" fill="#FF0000" fill-opacity="0.7" stroke="white" stroke-width="0.5"/>
<path d="M76.1458 55.819C77.2503 55.819 78.1458 54.9235 78.1458 53.819C78.1458 52.7144 77.2503 51.819 76.1458 51.819C75.0412 51.819 74.1458 52.7144 74.1458 53.819C74.1458 54.9235 75.0412 55.819 76.1458 55.819Z" fill="#FF0000" fill-opacity="0.7" stroke="white" stroke-width="0.5"/>
<path d="M71.6374 53.598C72.742 53.598 73.6374 52.7026 73.6374 51.598C73.6374 50.4935 72.742 49.598 71.6374 49.598C70.5329 49.598 69.6374 50.4935 69.6374 51.598C69.6374 52.7026 70.5329 53.598 71.6374 53.598Z" fill="#FF0000" fill-opacity="0.7" stroke="white" stroke-width="0.5"/>
<path d="M68.8468 72.1577C69.9514 72.1577 70.8468 71.2623 70.8468 70.1577C70.8468 69.0531 69.9514 68.1577 68.8468 68.1577C67.7423 68.1577 66.8468 69.0531 66.8468 70.1577C66.8468 71.2623 67.7423 72.1577 68.8468 72.1577Z" fill="#FF0000" fill-opacity="0.7" stroke="white" stroke-width="0.5"/>
<path d="M62.934 68.6375C64.0386 68.6375 64.934 67.7421 64.934 66.6375C64.934 65.5329 64.0386 64.6375 62.934 64.6375C61.8294 64.6375 60.934 65.5329 60.934 66.6375C60.934 67.7421 61.8294 68.6375 62.934 68.6375Z" fill="#FF0000" fill-opacity="0.7" stroke="white" stroke-width="0.5"/>
<path d="M68.949 72.1278C70.0535 72.1278 70.949 71.2324 70.949 70.1278C70.949 69.0232 70.0535 68.1278 68.949 68.1278C67.8444 68.1278 66.949 69.0232 66.949 70.1278C66.949 71.2324 67.8444 72.1278 68.949 72.1278Z" fill="#FF0000" fill-opacity="0.7" stroke="white" stroke-width="0.5"/>
<path d="M77.8839 77.6317C78.9885 77.6317 79.8839 76.7363 79.8839 75.6317C79.8839 74.5271 78.9885 73.6317 77.8839 73.6317C76.7793 73.6317 75.8839 74.5271 75.8839 75.6317C75.8839 76.7363 76.7793 77.6317 77.8839 77.6317Z" fill="#FF0000" fill-opacity="0.7" stroke="white" stroke-width="0.5"/>
<path d="M79.6123 53.4802C80.7168 53.4802 81.6123 52.5848 81.6123 51.4802C81.6123 50.3757 80.7168 49.4802 79.6123 49.4802C78.5077 49.4802 77.6123 50.3757 77.6123 51.4802C77.6123 52.5848 78.5077 53.4802 79.6123 53.4802Z" fill="#FF0000" fill-opacity="0.7" stroke="white" stroke-width="0.5"/>
<path d="M212.285 101.374C213.389 101.374 214.285 100.479 214.285 99.3744C214.285 98.2698 213.389 97.3744 212.285 97.3744C211.18 97.3744 210.285 98.2698 210.285 99.3744C210.285 100.479 211.18 101.374 212.285 101.374Z" fill="#FF0000" fill-opacity="0.7" stroke="white" stroke-width="0.5"/>
<path d="M68.5743 71.988C69.6789 71.988 70.5743 71.0926 70.5743 69.988C70.5743 68.8834 69.6789 67.988 68.5743 67.988C67.4697 67.988 66.5743 68.8834 66.5743 69.988C66.5743 71.0926 67.4697 71.988 68.5743 71.988Z" fill="#FF0000" fill-opacity="0.7" stroke="white" stroke-width="0.5"/>
<path d="M68.7158 72.0679C69.8204 72.0679 70.7158 71.1724 70.7158 70.0679C70.7158 68.9633 69.8204 68.0679 68.7158 68.0679C67.6113 68.0679 66.7158 68.9633 66.7158 70.0679C66.7158 71.1724 67.6113 72.0679 68.7158 72.0679Z" fill="#FF0000" fill-opacity="0.7" stroke="white" stroke-width="0.5"/>
<path d="M77.8941 77.6012C78.9986 77.6012 79.8941 76.7057 79.8941 75.6012C79.8941 74.4966 78.9986 73.6012 77.8941 73.6012C76.7895 73.6012 75.8941 74.4966 75.8941 75.6012C75.8941 76.7057 76.7895 77.6012 77.8941 77.6012Z" fill="#FF0000" fill-opacity="0.7" stroke="white" stroke-width="0.5"/>
<path d="M73.5876 62.7873C74.6922 62.7873 75.5876 61.8919 75.5876 60.7873C75.5876 59.6827 74.6922 58.7873 73.5876 58.7873C72.483 58.7873 71.5876 59.6827 71.5876 60.7873C71.5876 61.8919 72.483 62.7873 73.5876 62.7873Z" fill="#FF0000" fill-opacity="0.7" stroke="white" stroke-width="0.5"/>
<path d="M72.4458 53.4415C73.5504 53.4415 74.4458 52.546 74.4458 51.4415C74.4458 50.3369 73.5504 49.4415 72.4458 49.4415C71.3412 49.4415 70.4458 50.3369 70.4458 51.4415C70.4458 52.546 71.3412 53.4415 72.4458 53.4415Z" fill="#FF0000" fill-opacity="0.7" stroke="white" stroke-width="0.5"/>
<path d="M49.78 51.1227C50.8846 51.1227 51.78 50.2273 51.78 49.1227C51.78 48.0181 50.8846 47.1227 49.78 47.1227C48.6754 47.1227 47.78 48.0181 47.78 49.1227C47.78 50.2273 48.6754 51.1227 49.78 51.1227Z" fill="#FF0000" fill-opacity="0.7" stroke="white" stroke-width="0.5"/>
<path d="M119.693 55.1659C120.798 55.1659 121.693 54.2705 121.693 53.1659C121.693 52.0614 120.798 51.1659 119.693 51.1659C118.589 51.1659 117.693 52.0614 117.693 53.1659C117.693 54.2705 118.589 55.1659 119.693 55.1659Z" fill="#FF0000" fill-opacity="0.7" stroke="white" stroke-width="0.5"/>
<path d="M68.9596 72.2482C70.0642 72.2482 70.9596 71.3527 70.9596 70.2482C70.9596 69.1436 70.0642 68.2482 68.9596 68.2482C67.855 68.2482 66.9596 69.1436 66.9596 70.2482C66.9596 71.3527 67.855 72.2482 68.9596 72.2482Z" fill="#FF0000" fill-opacity="0.7" stroke="white" stroke-width="0.5"/>
<path d="M71.369 72.5781C72.4736 72.5781 73.369 71.6827 73.369 70.5781C73.369 69.4736 72.4736 68.5781 71.369 68.5781C70.2644 68.5781 69.369 69.4736 69.369 70.5781C69.369 71.6827 70.2644 72.5781 71.369 72.5781Z" fill="#FF0000" fill-opacity="0.7" stroke="white" stroke-width="0.5"/>
<path d="M55.3712 59.7223C56.4757 59.7223 57.3712 58.8269 57.3712 57.7223C57.3712 56.6177 56.4757 55.7223 55.3712 55.7223C54.2666 55.7223 53.3712 56.6177 53.3712 57.7223C53.3712 58.8269 54.2666 59.7223 55.3712 59.7223Z" fill="#FF0000" fill-opacity="0.7" stroke="white" stroke-width="0.5"/>
<path d="M136.994 50.8252C138.099 50.8252 138.994 49.9298 138.994 48.8252C138.994 47.7206 138.099 46.8252 136.994 46.8252C135.89 46.8252 134.994 47.7206 134.994 48.8252C134.994 49.9298 135.89 50.8252 136.994 50.8252Z" fill="#FF0000" fill-opacity="0.7" stroke="white" stroke-width="0.5"/>
<path d="M184.039 79.6054C185.143 79.6054 186.039 78.71 186.039 77.6054C186.039 76.5009 185.143 75.6054 184.039 75.6054C182.934 75.6054 182.039 76.5009 182.039 77.6054C182.039 78.71 182.934 79.6054 184.039 79.6054Z" fill="#FF0000" fill-opacity="0.7" stroke="white" stroke-width="0.5"/>
<path d="M112.343 62.916C113.448 62.916 114.343 62.0206 114.343 60.916C114.343 59.8114 113.448 58.916 112.343 58.916C111.238 58.916 110.343 59.8114 110.343 60.916C110.343 62.0206 111.238 62.916 112.343 62.916Z" fill="#FF0000" fill-opacity="0.7" stroke="white" stroke-width="0.5"/>
<path d="M131.844 49.1667C132.948 49.1667 133.844 48.2713 133.844 47.1667C133.844 46.0621 132.948 45.1667 131.844 45.1667C130.739 45.1667 129.844 46.0621 129.844 47.1667C129.844 48.2713 130.739 49.1667 131.844 49.1667Z" fill="#FF0000" fill-opacity="0.7" stroke="white" stroke-width="0.5"/>
<path d="M117.307 45.4001C118.411 45.4001 119.307 44.5047 119.307 43.4001C119.307 42.2955 118.411 41.4001 117.307 41.4001C116.202 41.4001 115.307 42.2955 115.307 43.4001C115.307 44.5047 116.202 45.4001 117.307 45.4001Z" fill="#FF0000" fill-opacity="0.7" stroke="white" stroke-width="0.5"/>
<path d="M69.2411 72.2443C70.3457 72.2443 71.2411 71.3489 71.2411 70.2443C71.2411 69.1397 70.3457 68.2443 69.2411 68.2443C68.1365 68.2443 67.2411 69.1397 67.2411 70.2443C67.2411 71.3489 68.1365 72.2443 69.2411 72.2443Z" fill="#FF0000" fill-opacity="0.7" stroke="white" stroke-width="0.5"/>
<path d="M68.7141 71.6563C69.8187 71.6563 70.7141 70.7609 70.7141 69.6563C70.7141 68.5517 69.8187 67.6563 68.7141 67.6563C67.6096 67.6563 66.7141 68.5517 66.7141 69.6563C66.7141 70.7609 67.6096 71.6563 68.7141 71.6563Z" fill="#FF0000" fill-opacity="0.7" stroke="white" stroke-width="0.5"/>
<path d="M70.6123 73.0927C71.7169 73.0927 72.6123 72.1973 72.6123 71.0927C72.6123 69.9881 71.7169 69.0927 70.6123 69.0927C69.5078 69.0927 68.6123 69.9881 68.6123 71.0927C68.6123 72.1973 69.5078 73.0927 70.6123 73.0927Z" fill="#FF0000" fill-opacity="0.7" stroke="white" stroke-width="0.5"/>
<path d="M75.2458 80.5046C76.3504 80.5046 77.2458 79.6092 77.2458 78.5046C77.2458 77.4001 76.3504 76.5046 75.2458 76.5046C74.1413 76.5046 73.2458 77.4001 73.2458 78.5046C73.2458 79.6092 74.1413 80.5046 75.2458 80.5046Z" fill="#FF0000" fill-opacity="0.7" stroke="white" stroke-width="0.5"/>
<path d="M75.4145 80.1786C76.519 80.1786 77.4145 79.2832 77.4145 78.1786C77.4145 77.074 76.519 76.1786 75.4145 76.1786C74.3099 76.1786 73.4145 77.074 73.4145 78.1786C73.4145 79.2832 74.3099 80.1786 75.4145 80.1786Z" fill="#FF0000" fill-opacity="0.7" stroke="white" stroke-width="0.5"/>
<path d="M82.5071 69.3356C83.6117 69.3356 84.5071 68.4402 84.5071 67.3356C84.5071 66.2311 83.6117 65.3356 82.5071 65.3356C81.4025 65.3356 80.5071 66.2311 80.5071 67.3356C80.5071 68.4402 81.4025 69.3356 82.5071 69.3356Z" fill="#FF0000" fill-opacity="0.7" stroke="white" stroke-width="0.5"/>
<path d="M76.0731 55.9548C77.1777 55.9548 78.0731 55.0593 78.0731 53.9548C78.0731 52.8502 77.1777 51.9548 76.0731 51.9548C74.9685 51.9548 74.0731 52.8502 74.0731 53.9548C74.0731 55.0593 74.9685 55.9548 76.0731 55.9548Z" fill="#FF0000" fill-opacity="0.7" stroke="white" stroke-width="0.5"/>
<path d="M79.6221 53.2349C80.7267 53.2349 81.6221 52.3394 81.6221 51.2349C81.6221 50.1303 80.7267 49.2349 79.6221 49.2349C78.5175 49.2349 77.6221 50.1303 77.6221 51.2349C77.6221 52.3394 78.5175 53.2349 79.6221 53.2349Z" fill="#FF0000" fill-opacity="0.7" stroke="white" stroke-width="0.5"/>
<path d="M49.0874 49.6119C50.192 49.6119 51.0874 48.7165 51.0874 47.6119C51.0874 46.5074 50.192 45.6119 49.0874 45.6119C47.9828 45.6119 47.0874 46.5074 47.0874 47.6119C47.0874 48.7165 47.9828 49.6119 49.0874 49.6119Z" fill="#FF0000" fill-opacity="0.7" stroke="white" stroke-width="0.5"/>
<path d="M74.4209 52.654C75.5254 52.654 76.4209 51.7586 76.4209 50.654C76.4209 49.5494 75.5254 48.654 74.4209 48.654C73.3163 48.654 72.4209 49.5494 72.4209 50.654C72.4209 51.7586 73.3163 52.654 74.4209 52.654Z" fill="#FF0000" fill-opacity="0.7" stroke="white" stroke-width="0.5"/>
<path d="M176.047 65.9645C177.152 65.9645 178.047 65.0691 178.047 63.9645C178.047 62.86 177.152 61.9645 176.047 61.9645C174.943 61.9645 174.047 62.86 174.047 63.9645C174.047 65.0691 174.943 65.9645 176.047 65.9645Z" fill="#FF0000" fill-opacity="0.7" stroke="white" stroke-width="0.5"/>
<path d="M207.518 101.13C208.623 101.13 209.518 100.235 209.518 99.1301C209.518 98.0255 208.623 97.1301 207.518 97.1301C206.413 97.1301 205.518 98.0255 205.518 99.1301C205.518 100.235 206.413 101.13 207.518 101.13Z" fill="#FF0000" fill-opacity="0.7" stroke="white" stroke-width="0.5"/>
<path d="M128.738 48.2411C129.843 48.2411 130.738 47.3456 130.738 46.2411C130.738 45.1365 129.843 44.2411 128.738 44.2411C127.634 44.2411 126.738 45.1365 126.738 46.2411C126.738 47.3456 127.634 48.2411 128.738 48.2411Z" fill="#FF0000" fill-opacity="0.7" stroke="white" stroke-width="0.5"/>
<path d="M96.2287 94.2903C97.3332 94.2903 98.2287 93.3949 98.2287 92.2903C98.2287 91.1858 97.3332 90.2903 96.2287 90.2903C95.1241 90.2903 94.2287 91.1858 94.2287 92.2903C94.2287 93.3949 95.1241 94.2903 96.2287 94.2903Z" fill="#FF0000" fill-opacity="0.7" stroke="white" stroke-width="0.5"/>
<path d="M68.6645 71.382C69.769 71.382 70.6645 70.4866 70.6645 69.382C70.6645 68.2775 69.769 67.382 68.6645 67.382C67.5599 67.382 66.6645 68.2775 66.6645 69.382C66.6645 70.4866 67.5599 71.382 68.6645 71.382Z" fill="#FF0000" fill-opacity="0.7" stroke="white" stroke-width="0.5"/>
<path d="M74.0844 81.0057C75.1889 81.0057 76.0844 80.1102 76.0844 79.0057C76.0844 77.9011 75.1889 77.0057 74.0844 77.0057C72.9798 77.0057 72.0844 77.9011 72.0844 79.0057C72.0844 80.1102 72.9798 81.0057 74.0844 81.0057Z" fill="#FF0000" fill-opacity="0.7" stroke="white" stroke-width="0.5"/>
<path d="M81.4216 90.3088C82.5262 90.3088 83.4216 89.4134 83.4216 88.3088C83.4216 87.2043 82.5262 86.3088 81.4216 86.3088C80.317 86.3088 79.4216 87.2043 79.4216 88.3088C79.4216 89.4134 80.317 90.3088 81.4216 90.3088Z" fill="#FF0000" fill-opacity="0.7" stroke="white" stroke-width="0.5"/>
<path d="M75.2552 58.0828C76.3597 58.0828 77.2552 57.1874 77.2552 56.0828C77.2552 54.9783 76.3597 54.0828 75.2552 54.0828C74.1506 54.0828 73.2552 54.9783 73.2552 56.0828C73.2552 57.1874 74.1506 58.0828 75.2552 58.0828Z" fill="#FF0000" fill-opacity="0.7" stroke="white" stroke-width="0.5"/>
<path d="M64.3163 60.1004C65.4208 60.1004 66.3163 59.205 66.3163 58.1004C66.3163 56.9959 65.4208 56.1004 64.3163 56.1004C63.2117 56.1004 62.3163 56.9959 62.3163 58.1004C62.3163 59.205 63.2117 60.1004 64.3163 60.1004Z" fill="#FF0000" fill-opacity="0.7" stroke="white" stroke-width="0.5"/>
<path d="M65.9027 51.1517C67.0073 51.1517 67.9027 50.2562 67.9027 49.1517C67.9027 48.0471 67.0073 47.1517 65.9027 47.1517C64.7981 47.1517 63.9027 48.0471 63.9027 49.1517C63.9027 50.2562 64.7981 51.1517 65.9027 51.1517Z" fill="#FF0000" fill-opacity="0.7" stroke="white" stroke-width="0.5"/>
<path d="M74.3782 54.8531C75.4827 54.8531 76.3782 53.9576 76.3782 52.8531C76.3782 51.7485 75.4827 50.8531 74.3782 50.8531C73.2736 50.8531 72.3782 51.7485 72.3782 52.8531C72.3782 53.9576 73.2736 54.8531 74.3782 54.8531Z" fill="#FF0000" fill-opacity="0.7" stroke="white" stroke-width="0.5"/>
<path d="M53.4017 57.8185C54.5063 57.8185 55.4017 56.9231 55.4017 55.8185C55.4017 54.7139 54.5063 53.8185 53.4017 53.8185C52.2972 53.8185 51.4017 54.7139 51.4017 55.8185C51.4017 56.9231 52.2972 57.8185 53.4017 57.8185Z" fill="#FF0000" fill-opacity="0.7" stroke="white" stroke-width="0.5"/>
<path d="M74.3272 52.57C75.4318 52.57 76.3272 51.6746 76.3272 50.57C76.3272 49.4655 75.4318 48.57 74.3272 48.57C73.2226 48.57 72.3272 49.4655 72.3272 50.57C72.3272 51.6746 73.2226 52.57 74.3272 52.57Z" fill="#FF0000" fill-opacity="0.7" stroke="white" stroke-width="0.5"/>
<path d="M175.996 65.971C177.101 65.971 177.996 65.0756 177.996 63.971C177.996 62.8665 177.101 61.971 175.996 61.971C174.892 61.971 173.996 62.8665 173.996 63.971C173.996 65.0756 174.892 65.971 175.996 65.971Z" fill="#FF0000" fill-opacity="0.7" stroke="white" stroke-width="0.5"/>
<path d="M120.533 46.6375C121.638 46.6375 122.533 45.742 122.533 44.6375C122.533 43.5329 121.638 42.6375 120.533 42.6375C119.429 42.6375 118.533 43.5329 118.533 44.6375C118.533 45.742 119.429 46.6375 120.533 46.6375Z" fill="#FF0000" fill-opacity="0.7" stroke="white" stroke-width="0.5"/>
<path d="M69.0622 72.2747C70.1667 72.2747 71.0622 71.3792 71.0622 70.2747C71.0622 69.1701 70.1667 68.2747 69.0622 68.2747C67.9576 68.2747 67.0622 69.1701 67.0622 70.2747C67.0622 71.3792 67.9576 72.2747 69.0622 72.2747Z" fill="#FF0000" fill-opacity="0.7" stroke="white" stroke-width="0.5"/>
<path d="M68.8243 72.2272C69.9289 72.2272 70.8243 71.3318 70.8243 70.2272C70.8243 69.1227 69.9289 68.2272 68.8243 68.2272C67.7198 68.2272 66.8243 69.1227 66.8243 70.2272C66.8243 71.3318 67.7198 72.2272 68.8243 72.2272Z" fill="#FF0000" fill-opacity="0.7" stroke="white" stroke-width="0.5"/>
<path d="M71.9656 74.3914C73.0702 74.3914 73.9656 73.496 73.9656 72.3914C73.9656 71.2868 73.0702 70.3914 71.9656 70.3914C70.861 70.3914 69.9656 71.2868 69.9656 72.3914C69.9656 73.496 70.861 74.3914 71.9656 74.3914Z" fill="#FF0000" fill-opacity="0.7" stroke="white" stroke-width="0.5"/>
<path d="M76.1268 87.6601C77.2314 87.6601 78.1268 86.7647 78.1268 85.6601C78.1268 84.5555 77.2314 83.6601 76.1268 83.6601C75.0223 83.6601 74.1268 84.5555 74.1268 85.6601C74.1268 86.7647 75.0223 87.6601 76.1268 87.6601Z" fill="#FF0000" fill-opacity="0.7" stroke="white" stroke-width="0.5"/>
<path d="M73.3614 55.7207C74.466 55.7207 75.3614 54.8253 75.3614 53.7207C75.3614 52.6161 74.466 51.7207 73.3614 51.7207C72.2568 51.7207 71.3614 52.6161 71.3614 53.7207C71.3614 54.8253 72.2568 55.7207 73.3614 55.7207Z" fill="#FF0000" fill-opacity="0.7" stroke="white" stroke-width="0.5"/>
<path d="M77.9168 54.6061C79.0214 54.6061 79.9168 53.7107 79.9168 52.6061C79.9168 51.5015 79.0214 50.6061 77.9168 50.6061C76.8122 50.6061 75.9168 51.5015 75.9168 52.6061C75.9168 53.7107 76.8122 54.6061 77.9168 54.6061Z" fill="#FF0000" fill-opacity="0.7" stroke="white" stroke-width="0.5"/>
<path d="M78.4908 54.1443C79.5954 54.1443 80.4908 53.2489 80.4908 52.1443C80.4908 51.0398 79.5954 50.1443 78.4908 50.1443C77.3862 50.1443 76.4908 51.0398 76.4908 52.1443C76.4908 53.2489 77.3862 54.1443 78.4908 54.1443Z" fill="#FF0000" fill-opacity="0.7" stroke="white" stroke-width="0.5"/>
<path d="M74.1523 52.7665C75.2569 52.7665 76.1523 51.8711 76.1523 50.7665C76.1523 49.662 75.2569 48.7665 74.1523 48.7665C73.0477 48.7665 72.1523 49.662 72.1523 50.7665C72.1523 51.8711 73.0477 52.7665 74.1523 52.7665Z" fill="#FF0000" fill-opacity="0.7" stroke="white" stroke-width="0.5"/>
<path d="M129.736 53.1472C130.84 53.1472 131.736 52.2517 131.736 51.1472C131.736 50.0426 130.84 49.1472 129.736 49.1472C128.631 49.1472 127.736 50.0426 127.736 51.1472C127.736 52.2517 128.631 53.1472 129.736 53.1472Z" fill="#FF0000" fill-opacity="0.7" stroke="white" stroke-width="0.5"/>
<path d="M79.9202 68.9062C81.0247 68.9062 81.9202 68.0107 81.9202 66.9062C81.9202 65.8016 81.0247 64.9062 79.9202 64.9062C78.8156 64.9062 77.9202 65.8016 77.9202 66.9062C77.9202 68.0107 78.8156 68.9062 79.9202 68.9062Z" fill="#FF0000" fill-opacity="0.7" stroke="white" stroke-width="0.5"/>
<path d="M68.7904 72.2818C69.895 72.2818 70.7904 71.3863 70.7904 70.2818C70.7904 69.1772 69.895 68.2818 68.7904 68.2818C67.6858 68.2818 66.7904 69.1772 66.7904 70.2818C66.7904 71.3863 67.6858 72.2818 68.7904 72.2818Z" fill="#FF0000" fill-opacity="0.7" stroke="white" stroke-width="0.5"/>
<path d="M75.7142 79.8995C76.8187 79.8995 77.7142 79.0041 77.7142 77.8995C77.7142 76.7949 76.8187 75.8995 75.7142 75.8995C74.6096 75.8995 73.7142 76.7949 73.7142 77.8995C73.7142 79.0041 74.6096 79.8995 75.7142 79.8995Z" fill="#FF0000" fill-opacity="0.7" stroke="white" stroke-width="0.5"/>
<path d="M74.6385 74.9971C75.7431 74.9971 76.6385 74.1017 76.6385 72.9971C76.6385 71.8926 75.7431 70.9971 74.6385 70.9971C73.5339 70.9971 72.6385 71.8926 72.6385 72.9971C72.6385 74.1017 73.5339 74.9971 74.6385 74.9971Z" fill="#FF0000" fill-opacity="0.7" stroke="white" stroke-width="0.5"/>
<path d="M76.1249 87.5959C77.2294 87.5959 78.1249 86.7005 78.1249 85.5959C78.1249 84.4913 77.2294 83.5959 76.1249 83.5959C75.0203 83.5959 74.1249 84.4913 74.1249 85.5959C74.1249 86.7005 75.0203 87.5959 76.1249 87.5959Z" fill="#FF0000" fill-opacity="0.7" stroke="white" stroke-width="0.5"/>
<path d="M65.9719 57.8149C67.0764 57.8149 67.9719 56.9195 67.9719 55.8149C67.9719 54.7103 67.0764 53.8149 65.9719 53.8149C64.8673 53.8149 63.9719 54.7103 63.9719 55.8149C63.9719 56.9195 64.8673 57.8149 65.9719 57.8149Z" fill="#FF0000" fill-opacity="0.7" stroke="white" stroke-width="0.5"/>
<path d="M72.307 59.2801C73.4115 59.2801 74.307 58.3846 74.307 57.2801C74.307 56.1755 73.4115 55.2801 72.307 55.2801C71.2024 55.2801 70.307 56.1755 70.307 57.2801C70.307 58.3846 71.2024 59.2801 72.307 59.2801Z" fill="#FF0000" fill-opacity="0.7" stroke="white" stroke-width="0.5"/>
<path d="M63.7089 61.9293C64.8135 61.9293 65.7089 61.0339 65.7089 59.9293C65.7089 58.8247 64.8135 57.9293 63.7089 57.9293C62.6044 57.9293 61.7089 58.8247 61.7089 59.9293C61.7089 61.0339 62.6044 61.9293 63.7089 61.9293Z" fill="#FF0000" fill-opacity="0.7" stroke="white" stroke-width="0.5"/>
<path d="M77.9209 54.6251C79.0255 54.6251 79.9209 53.7297 79.9209 52.6251C79.9209 51.5205 79.0255 50.6251 77.9209 50.6251C76.8164 50.6251 75.9209 51.5205 75.9209 52.6251C75.9209 53.7297 76.8164 54.6251 77.9209 54.6251Z" fill="#FF0000" fill-opacity="0.7" stroke="white" stroke-width="0.5"/>
<path d="M74.0614 52.7479C75.166 52.7479 76.0614 51.8525 76.0614 50.7479C76.0614 49.6433 75.166 48.7479 74.0614 48.7479C72.9569 48.7479 72.0614 49.6433 72.0614 50.7479C72.0614 51.8525 72.9569 52.7479 74.0614 52.7479Z" fill="#FF0000" fill-opacity="0.7" stroke="white" stroke-width="0.5"/>
<path d="M90.5915 49.6458C91.6961 49.6458 92.5915 48.7504 92.5915 47.6458C92.5915 46.5412 91.6961 45.6458 90.5915 45.6458C89.4869 45.6458 88.5915 46.5412 88.5915 47.6458C88.5915 48.7504 89.4869 49.6458 90.5915 49.6458Z" fill="#FF0000" fill-opacity="0.7" stroke="white" stroke-width="0.5"/>
<path d="M68.6487 72.9743C70.3056 72.9743 71.6487 71.6312 71.6487 69.9743C71.6487 68.3174 70.3056 66.9743 68.6487 66.9743C66.9919 66.9743 65.6487 68.3174 65.6487 69.9743C65.6487 71.6312 66.9919 72.9743 68.6487 72.9743Z" fill="#F8A400" stroke="white" stroke-width="0.4"/>
<path d="M68.8601 73.1491C70.517 73.1491 71.8601 71.806 71.8601 70.1491C71.8601 68.4923 70.517 67.1491 68.8601 67.1491C67.2033 67.1491 65.8601 68.4923 65.8601 70.1491C65.8601 71.806 67.2033 73.1491 68.8601 73.1491Z" fill="#F8A400" stroke="white" stroke-width="0.4"/>
<path d="M68.8601 73.1491C70.517 73.1491 71.8601 71.806 71.8601 70.1491C71.8601 68.4923 70.517 67.1491 68.8601 67.1491C67.2033 67.1491 65.8601 68.4923 65.8601 70.1491C65.8601 71.806 67.2033 73.1491 68.8601 73.1491Z" fill="#F8A400" stroke="white" stroke-width="0.4"/>
<path d="M69.0323 73.0721C70.6892 73.0721 72.0323 71.729 72.0323 70.0721C72.0323 68.4153 70.6892 67.0721 69.0323 67.0721C67.3755 67.0721 66.0323 68.4153 66.0323 70.0721C66.0323 71.729 67.3755 73.0721 69.0323 73.0721Z" fill="#F8A400" stroke="white" stroke-width="0.4"/>
<path d="M68.6487 72.9743C70.3056 72.9743 71.6487 71.6312 71.6487 69.9743C71.6487 68.3174 70.3056 66.9743 68.6487 66.9743C66.9919 66.9743 65.6487 68.3174 65.6487 69.9743C65.6487 71.6312 66.9919 72.9743 68.6487 72.9743Z" fill="#F8A400" stroke="white" stroke-width="0.4"/>
<path d="M69.3108 73.3658C70.9676 73.3658 72.3108 72.0226 72.3108 70.3658C72.3108 68.7089 70.9676 67.3658 69.3108 67.3658C67.6539 67.3658 66.3108 68.7089 66.3108 70.3658C66.3108 72.0226 67.6539 73.3658 69.3108 73.3658Z" fill="#F8A400" stroke="white" stroke-width="0.4"/>
<path d="M68.8601 73.1491C70.517 73.1491 71.8601 71.806 71.8601 70.1491C71.8601 68.4923 70.517 67.1491 68.8601 67.1491C67.2033 67.1491 65.8601 68.4923 65.8601 70.1491C65.8601 71.806 67.2033 73.1491 68.8601 73.1491Z" fill="#F8A400" stroke="white" stroke-width="0.4"/>
<path d="M69.0323 73.0721C70.6892 73.0721 72.0323 71.729 72.0323 70.0721C72.0323 68.4153 70.6892 67.0721 69.0323 67.0721C67.3755 67.0721 66.0323 68.4153 66.0323 70.0721C66.0323 71.729 67.3755 73.0721 69.0323 73.0721Z" fill="#F8A400" stroke="white" stroke-width="0.4"/>
<path d="M69.0323 73.0721C70.6892 73.0721 72.0323 71.729 72.0323 70.0721C72.0323 68.4153 70.6892 67.0721 69.0323 67.0721C67.3755 67.0721 66.0323 68.4153 66.0323 70.0721C66.0323 71.729 67.3755 73.0721 69.0323 73.0721Z" fill="#F8A400" stroke="white" stroke-width="0.4"/>
<path d="M64.2099 57.561C65.8667 57.561 67.2099 56.2178 67.2099 54.561C67.2099 52.9041 65.8667 51.561 64.2099 51.561C62.553 51.561 61.2099 52.9041 61.2099 54.561C61.2099 56.2178 62.553 57.561 64.2099 57.561Z" fill="#F8A400" stroke="white" stroke-width="0.4"/>
<path d="M64.2099 57.561C65.8667 57.561 67.2099 56.2178 67.2099 54.561C67.2099 52.9041 65.8667 51.561 64.2099 51.561C62.553 51.561 61.2099 52.9041 61.2099 54.561C61.2099 56.2178 62.553 57.561 64.2099 57.561Z" fill="#F8A400" stroke="white" stroke-width="0.4"/>
<path d="M68.8615 73.1479C70.5183 73.1479 71.8615 71.8048 71.8615 70.1479C71.8615 68.4911 70.5183 67.1479 68.8615 67.1479C67.2046 67.1479 65.8615 68.4911 65.8615 70.1479C65.8615 71.8048 67.2046 73.1479 68.8615 73.1479Z" fill="#F8A400" stroke="white" stroke-width="0.4"/>
<path d="M69.0323 73.0721C70.6892 73.0721 72.0323 71.729 72.0323 70.0721C72.0323 68.4153 70.6892 67.0721 69.0323 67.0721C67.3755 67.0721 66.0323 68.4153 66.0323 70.0721C66.0323 71.729 67.3755 73.0721 69.0323 73.0721Z" fill="#F8A400" stroke="white" stroke-width="0.4"/>
<path d="M69.3108 73.3658C70.9676 73.3658 72.3108 72.0226 72.3108 70.3658C72.3108 68.7089 70.9676 67.3658 69.3108 67.3658C67.6539 67.3658 66.3108 68.7089 66.3108 70.3658C66.3108 72.0226 67.6539 73.3658 69.3108 73.3658Z" fill="#F8A400" stroke="white" stroke-width="0.4"/>
<path d="M68.8601 73.1491C70.517 73.1491 71.8601 71.806 71.8601 70.1491C71.8601 68.4923 70.517 67.1491 68.8601 67.1491C67.2033 67.1491 65.8601 68.4923 65.8601 70.1491C65.8601 71.806 67.2033 73.1491 68.8601 73.1491Z" fill="#F8A400" stroke="white" stroke-width="0.4"/>
<path d="M123.482 49.6613C125.138 49.6613 126.482 48.3181 126.482 46.6613C126.482 45.0044 125.138 43.6613 123.482 43.6613C121.825 43.6613 120.482 45.0044 120.482 46.6613C120.482 48.3181 121.825 49.6613 123.482 49.6613Z" fill="#F8A400" stroke="white" stroke-width="0.4"/>
<path d="M68.8601 73.1491C70.517 73.1491 71.8601 71.806 71.8601 70.1491C71.8601 68.4923 70.517 67.1491 68.8601 67.1491C67.2033 67.1491 65.8601 68.4923 65.8601 70.1491C65.8601 71.806 67.2033 73.1491 68.8601 73.1491Z" fill="#F8A400" stroke="white" stroke-width="0.4"/>
<path d="M68.5506 73.1417C70.2074 73.1417 71.5506 71.7985 71.5506 70.1417C71.5506 68.4848 70.2074 67.1417 68.5506 67.1417C66.8937 67.1417 65.5506 68.4848 65.5506 70.1417C65.5506 71.7985 66.8937 73.1417 68.5506 73.1417Z" fill="#F8A400" stroke="white" stroke-width="0.4"/>
<path d="M69.3108 73.3658C70.9676 73.3658 72.3108 72.0226 72.3108 70.3658C72.3108 68.7089 70.9676 67.3658 69.3108 67.3658C67.6539 67.3658 66.3108 68.7089 66.3108 70.3658C66.3108 72.0226 67.6539 73.3658 69.3108 73.3658Z" fill="#F8A400" stroke="white" stroke-width="0.4"/>
<path d="M68.8601 74.1491C71.0693 74.1491 72.8601 72.3583 72.8601 70.1491C72.8601 67.94 71.0693 66.1491 68.8601 66.1491C66.651 66.1491 64.8601 67.94 64.8601 70.1491C64.8601 72.3583 66.651 74.1491 68.8601 74.1491Z" fill="#F8A400" stroke="white" stroke-width="0.4"/>
<path d="M68.6487 72.9743C70.3056 72.9743 71.6487 71.6312 71.6487 69.9743C71.6487 68.3174 70.3056 66.9743 68.6487 66.9743C66.9919 66.9743 65.6487 68.3174 65.6487 69.9743C65.6487 71.6312 66.9919 72.9743 68.6487 72.9743Z" fill="#F8A400" stroke="white" stroke-width="0.4"/>
<path d="M69.3108 74.3658C71.5199 74.3658 73.3108 72.5749 73.3108 70.3658C73.3108 68.1566 71.5199 66.3658 69.3108 66.3658C67.1016 66.3658 65.3108 68.1566 65.3108 70.3658C65.3108 72.5749 67.1016 74.3658 69.3108 74.3658Z" fill="#F8A400" stroke="white" stroke-width="0.4"/>
<path d="M68.8601 73.1491C70.517 73.1491 71.8601 71.806 71.8601 70.1491C71.8601 68.4923 70.517 67.1491 68.8601 67.1491C67.2033 67.1491 65.8601 68.4923 65.8601 70.1491C65.8601 71.806 67.2033 73.1491 68.8601 73.1491Z" fill="#F8A400" stroke="white" stroke-width="0.4"/>
<path d="M68.6487 72.9743C70.3056 72.9743 71.6487 71.6312 71.6487 69.9743C71.6487 68.3174 70.3056 66.9743 68.6487 66.9743C66.9919 66.9743 65.6487 68.3174 65.6487 69.9743C65.6487 71.6312 66.9919 72.9743 68.6487 72.9743Z" fill="#F8A400" stroke="white" stroke-width="0.4"/>
<path d="M68.8601 73.1491C70.517 73.1491 71.8601 71.806 71.8601 70.1491C71.8601 68.4923 70.517 67.1491 68.8601 67.1491C67.2033 67.1491 65.8601 68.4923 65.8601 70.1491C65.8601 71.806 67.2033 73.1491 68.8601 73.1491Z" fill="#F8A400" stroke="white" stroke-width="0.4"/>
<path d="M68.8601 73.1491C70.517 73.1491 71.8601 71.806 71.8601 70.1491C71.8601 68.4923 70.517 67.1491 68.8601 67.1491C67.2033 67.1491 65.8601 68.4923 65.8601 70.1491C65.8601 71.806 67.2033 73.1491 68.8601 73.1491Z" fill="#F8A400" stroke="white" stroke-width="0.4"/>
<path d="M68.6487 72.9743C70.3056 72.9743 71.6487 71.6312 71.6487 69.9743C71.6487 68.3174 70.3056 66.9743 68.6487 66.9743C66.9919 66.9743 65.6487 68.3174 65.6487 69.9743C65.6487 71.6312 66.9919 72.9743 68.6487 72.9743Z" fill="#F8A400" stroke="white" stroke-width="0.4"/>
<path d="M69.3108 73.3658C70.9676 73.3658 72.3108 72.0226 72.3108 70.3658C72.3108 68.7089 70.9676 67.3658 69.3108 67.3658C67.6539 67.3658 66.3108 68.7089 66.3108 70.3658C66.3108 72.0226 67.6539 73.3658 69.3108 73.3658Z" fill="#F8A400" stroke="white" stroke-width="0.4"/>
<path d="M69.0323 73.0721C70.6892 73.0721 72.0323 71.729 72.0323 70.0721C72.0323 68.4153 70.6892 67.0721 69.0323 67.0721C67.3755 67.0721 66.0323 68.4153 66.0323 70.0721C66.0323 71.729 67.3755 73.0721 69.0323 73.0721Z" fill="#F8A400" stroke="white" stroke-width="0.4"/>
<path d="M68.8615 73.1479C70.5183 73.1479 71.8615 71.8048 71.8615 70.1479C71.8615 68.4911 70.5183 67.1479 68.8615 67.1479C67.2046 67.1479 65.8615 68.4911 65.8615 70.1479C65.8615 71.8048 67.2046 73.1479 68.8615 73.1479Z" fill="#F8A400" stroke="white" stroke-width="0.4"/>
<path d="M69.0323 73.0721C70.6892 73.0721 72.0323 71.729 72.0323 70.0721C72.0323 68.4153 70.6892 67.0721 69.0323 67.0721C67.3755 67.0721 66.0323 68.4153 66.0323 70.0721C66.0323 71.729 67.3755 73.0721 69.0323 73.0721Z" fill="#F8A400" stroke="white" stroke-width="0.4"/>
<path d="M68.839 73.1695C70.4958 73.1695 71.839 71.8263 71.839 70.1695C71.839 68.5126 70.4958 67.1695 68.839 67.1695C67.1821 67.1695 65.839 68.5126 65.839 70.1695C65.839 71.8263 67.1821 73.1695 68.839 73.1695Z" fill="#F8A400" stroke="white" stroke-width="0.4"/>
<path d="M68.6487 72.9743C70.3056 72.9743 71.6487 71.6312 71.6487 69.9743C71.6487 68.3174 70.3056 66.9743 68.6487 66.9743C66.9919 66.9743 65.6487 68.3174 65.6487 69.9743C65.6487 71.6312 66.9919 72.9743 68.6487 72.9743Z" fill="#F8A400" stroke="white" stroke-width="0.4"/>
<path d="M68.8601 73.1491C70.517 73.1491 71.8601 71.806 71.8601 70.1491C71.8601 68.4923 70.517 67.1491 68.8601 67.1491C67.2033 67.1491 65.8601 68.4923 65.8601 70.1491C65.8601 71.806 67.2033 73.1491 68.8601 73.1491Z" fill="#F8A400" stroke="white" stroke-width="0.4"/>
<path d="M68.5506 73.1417C70.2074 73.1417 71.5506 71.7985 71.5506 70.1417C71.5506 68.4848 70.2074 67.1417 68.5506 67.1417C66.8937 67.1417 65.5506 68.4848 65.5506 70.1417C65.5506 71.7985 66.8937 73.1417 68.5506 73.1417Z" fill="#F8A400" stroke="white" stroke-width="0.4"/>
<path d="M68.8601 73.1491C70.517 73.1491 71.8601 71.806 71.8601 70.1491C71.8601 68.4923 70.517 67.1491 68.8601 67.1491C67.2033 67.1491 65.8601 68.4923 65.8601 70.1491C65.8601 71.806 67.2033 73.1491 68.8601 73.1491Z" fill="#F8A400" stroke="white" stroke-width="0.4"/>
<path d="M68.8158 73.1672C70.4726 73.1672 71.8158 71.8241 71.8158 70.1672C71.8158 68.5104 70.4726 67.1672 68.8158 67.1672C67.1589 67.1672 65.8158 68.5104 65.8158 70.1672C65.8158 71.8241 67.1589 73.1672 68.8158 73.1672Z" fill="#F8A400" stroke="white" stroke-width="0.4"/>
<path d="M68.8615 73.1479C70.5183 73.1479 71.8615 71.8048 71.8615 70.1479C71.8615 68.4911 70.5183 67.1479 68.8615 67.1479C67.2046 67.1479 65.8615 68.4911 65.8615 70.1479C65.8615 71.8048 67.2046 73.1479 68.8615 73.1479Z" fill="#F8A400" stroke="white" stroke-width="0.4"/>
<path d="M87.325 103.961C89.5341 103.961 91.325 102.17 91.325 99.9607C91.325 97.7516 89.5341 95.9607 87.325 95.9607C85.1158 95.9607 83.325 97.7516 83.325 99.9607C83.325 102.17 85.1158 103.961 87.325 103.961Z" fill="#F8A400" stroke="white" stroke-width="0.4"/>
<path d="M68.6487 72.9743C70.3056 72.9743 71.6487 71.6312 71.6487 69.9743C71.6487 68.3174 70.3056 66.9743 68.6487 66.9743C66.9919 66.9743 65.6487 68.3174 65.6487 69.9743C65.6487 71.6312 66.9919 72.9743 68.6487 72.9743Z" fill="#F8A400" stroke="white" stroke-width="0.4"/>
<path d="M68.8601 73.1491C70.517 73.1491 71.8601 71.806 71.8601 70.1491C71.8601 68.4923 70.517 67.1491 68.8601 67.1491C67.2033 67.1491 65.8601 68.4923 65.8601 70.1491C65.8601 71.806 67.2033 73.1491 68.8601 73.1491Z" fill="#F8A400" stroke="white" stroke-width="0.4"/>
<path d="M68.6487 72.9743C70.3056 72.9743 71.6487 71.6312 71.6487 69.9743C71.6487 68.3174 70.3056 66.9743 68.6487 66.9743C66.9919 66.9743 65.6487 68.3174 65.6487 69.9743C65.6487 71.6312 66.9919 72.9743 68.6487 72.9743Z" fill="#F8A400" stroke="white" stroke-width="0.4"/>
<path d="M68.8601 74.1491C71.0693 74.1491 72.8601 72.3583 72.8601 70.1491C72.8601 67.94 71.0693 66.1491 68.8601 66.1491C66.651 66.1491 64.8601 67.94 64.8601 70.1491C64.8601 72.3583 66.651 74.1491 68.8601 74.1491Z" fill="#F8A400" stroke="white" stroke-width="0.4"/>
<path d="M68.8615 73.1479C70.5183 73.1479 71.8615 71.8048 71.8615 70.1479C71.8615 68.4911 70.5183 67.1479 68.8615 67.1479C67.2046 67.1479 65.8615 68.4911 65.8615 70.1479C65.8615 71.8048 67.2046 73.1479 68.8615 73.1479Z" fill="#F8A400" stroke="white" stroke-width="0.4"/>
<path d="M68.8601 73.1491C70.517 73.1491 71.8601 71.806 71.8601 70.1491C71.8601 68.4923 70.517 67.1491 68.8601 67.1491C67.2033 67.1491 65.8601 68.4923 65.8601 70.1491C65.8601 71.806 67.2033 73.1491 68.8601 73.1491Z" fill="#F8A400" stroke="white" stroke-width="0.4"/>
<path d="M68.5506 74.1417C70.7597 74.1417 72.5506 72.3508 72.5506 70.1417C72.5506 67.9325 70.7597 66.1417 68.5506 66.1417C66.3414 66.1417 64.5506 67.9325 64.5506 70.1417C64.5506 72.3508 66.3414 74.1417 68.5506 74.1417Z" fill="#F8A400" stroke="white" stroke-width="0.4"/>
<path d="M68.8601 73.1491C70.517 73.1491 71.8601 71.806 71.8601 70.1491C71.8601 68.4923 70.517 67.1491 68.8601 67.1491C67.2033 67.1491 65.8601 68.4923 65.8601 70.1491C65.8601 71.806 67.2033 73.1491 68.8601 73.1491Z" fill="#F8A400" stroke="white" stroke-width="0.4"/>
<path d="M69.0323 74.0721C71.2415 74.0721 73.0323 72.2813 73.0323 70.0721C73.0323 67.863 71.2415 66.0721 69.0323 66.0721C66.8232 66.0721 65.0323 67.863 65.0323 70.0721C65.0323 72.2813 66.8232 74.0721 69.0323 74.0721Z" fill="#F8A400" stroke="white" stroke-width="0.4"/>
<path d="M68.839 73.1695C70.4958 73.1695 71.839 71.8263 71.839 70.1695C71.839 68.5126 70.4958 67.1695 68.839 67.1695C67.1821 67.1695 65.839 68.5126 65.839 70.1695C65.839 71.8263 67.1821 73.1695 68.839 73.1695Z" fill="#F8A400" stroke="white" stroke-width="0.4"/>
<path d="M69.0323 73.0721C70.6892 73.0721 72.0323 71.729 72.0323 70.0721C72.0323 68.4153 70.6892 67.0721 69.0323 67.0721C67.3755 67.0721 66.0323 68.4153 66.0323 70.0721C66.0323 71.729 67.3755 73.0721 69.0323 73.0721Z" fill="#F8A400" stroke="white" stroke-width="0.4"/>
</svg>
